<svg xmlns="http://www.w3.org/2000/svg" viewBox="0 0 128 128" role="img" aria-label="Nuengdeaw AI mark">
  <defs>
    <radialGradient id="glow" cx="50%" cy="50%" r="60%">
      <stop offset="0%" stop-color="#86f4da" stop-opacity="0.98"/>
      <stop offset="55%" stop-color="#79a7ff" stop-opacity="0.48"/>
      <stop offset="100%" stop-color="#07101b" stop-opacity="0"/>
    </radialGradient>
    <linearGradient id="core" x1="0%" y1="0%" x2="100%" y2="100%">
      <stop offset="0%" stop-color="#86f4da"/>
      <stop offset="100%" stop-color="#ffd68e"/>
    </linearGradient>
  </defs>
  <rect width="128" height="128" rx="28" fill="#07101b"/>
  <circle cx="64" cy="64" r="42" fill="url(#glow)"/>
  <g stroke="#86f4da" stroke-width="2.5" stroke-linecap="round" opacity="0.78">
    <line x1="64" y1="64" x2="64" y2="22"/>
    <line x1="64" y1="64" x2="100" y2="40"/>
    <line x1="64" y1="64" x2="102" y2="90"/>
    <line x1="64" y1="64" x2="64" y2="106"/>
    <line x1="64" y1="64" x2="26" y2="90"/>
    <line x1="64" y1="64" x2="28" y2="40"/>
  </g>
  <g>
    <circle cx="64" cy="22" r="5" fill="#86f4da"/>
    <circle cx="100" cy="40" r="5" fill="#79a7ff"/>
    <circle cx="102" cy="90" r="5" fill="#86f4da"/>
    <circle cx="64" cy="106" r="5" fill="#ffd68e"/>
    <circle cx="26" cy="90" r="5" fill="#79a7ff"/>
    <circle cx="28" cy="40" r="5" fill="#86f4da"/>
  </g>
  <circle cx="64" cy="64" r="13" fill="url(#core)"/>
  <circle cx="64" cy="64" r="5" fill="#ffffff" opacity="0.96"/>
</svg>
